<svg xmlns="http://www.w3.org/2000/svg" xmlns:xlink="http://www.w3.org/1999/xlink" viewBox="0 0 523.46 73.32"><defs><clipPath id="a" transform="translate(0 0)"><rect width="523.46" height="73.32" fill="none"/></clipPath></defs><title>AppointmentThing</title><path d="M0,0H523.46V73.32H0Z" transform="translate(0 0)" fill="none"/><g clip-path="url(#a)"><path d="M17.78,32.46h11a1.32,1.32,0,0,0,1.24-1.78L24.51,15.8a1.32,1.32,0,0,0-2.48,0L16.54,30.68a1.32,1.32,0,0,0,1.24,1.78m27.51,17H37.92a1.32,1.32,0,0,1-1.24-.86L33.91,41.1a1.35,1.35,0,0,0-1.25-.86H14a1.33,1.33,0,0,0-1.24.86L9.93,48.59a1.32,1.32,0,0,1-1.24.86H1.32A1.32,1.32,0,0,1,.1,47.64l17.83-45a1.34,1.34,0,0,1,1.23-.83h8.29a1.33,1.33,0,0,1,1.23.83l17.84,45a1.33,1.33,0,0,1-1.23,1.81" transform="translate(0 0)" fill="#2c2e35"/></g><g clip-path="url(#a)"><path d="M66.36,42.38c4.68,0,7.94-3.89,7.94-9.52S71,23.18,66.36,23.18s-7.94,3.73-7.94,9.68,3.34,9.52,7.94,9.52M58.9,46V60.43a1.4,1.4,0,0,1-1.4,1.4H50.77a1.4,1.4,0,0,1-1.4-1.4V17.51a1.4,1.4,0,0,1,1.4-1.4l4.81.07c.88,0,1.34.42,1.34,1.26V20.8h0s3.35-5.47,11.52-5.47c8.81,0,15.48,6.75,15.48,17.38,0,10.4-6.59,17.54-15.16,17.54-7.38,0-9.45-4.28-9.45-4.28Z" transform="translate(0 0)" fill="#2c2e35"/></g><g clip-path="url(#a)"><path d="M105.64,42.38c4.69,0,7.94-3.89,7.94-9.52s-3.25-9.68-7.94-9.68-7.93,3.73-7.93,9.68,3.33,9.52,7.93,9.52M98.18,46V60.41a1.42,1.42,0,0,1-1.42,1.42H90.08a1.42,1.42,0,0,1-1.42-1.42V17.53a1.42,1.42,0,0,1,1.42-1.42l4.66,0a1.37,1.37,0,0,1,1.4,1.45l.06,3.22h0s3.32-5.47,11.5-5.47c8.81,0,15.47,6.75,15.47,17.38,0,10.4-6.58,17.54-15.16,17.54-7.38,0-9.44-4.28-9.44-4.28Z" transform="translate(0 0)" fill="#2c2e35"/></g><g clip-path="url(#a)"><path d="M169.8,16.11h6.88A1.32,1.32,0,0,1,178,17.44V48.13a1.32,1.32,0,0,1-1.32,1.32H169.8a1.32,1.32,0,0,1-1.32-1.32V17.44a1.32,1.32,0,0,1,1.32-1.33m-1-6.92c-3.39-6.37,2.36-11.62,8.61-8a1.44,1.44,0,0,1,.53.54c3.52,6.5-2.5,11.48-8.6,8a1.58,1.58,0,0,1-.54-.55" transform="translate(0 0)" fill="#2c2e35"/></g><g clip-path="url(#a)"><path d="M193,49.45h-6.88a1.32,1.32,0,0,1-1.32-1.33V17.43a1.32,1.32,0,0,1,1.32-1.32l4.49,0a1.4,1.4,0,0,1,1.48,1.26V20.8h0c2.54-3.74,6-5.55,11.35-5.55,8.57,0,13.89,5.87,13.89,14.84v18A1.33,1.33,0,0,1,216,49.45h-6.87a1.32,1.32,0,0,1-1.33-1.33V30.87c0-4-2.46-7.3-6.74-7.3a6.65,6.65,0,0,0-6.75,6.83V48.12A1.32,1.32,0,0,1,193,49.45" transform="translate(0 0)" fill="#2c2e35"/></g><g clip-path="url(#a)"><path d="M225.86,14.79V7.28A1.32,1.32,0,0,1,227.18,6h6.88a1.32,1.32,0,0,1,1.32,1.33v7.51a1.32,1.32,0,0,0,1.32,1.32h5.53a1.33,1.33,0,0,1,1.33,1.33v4.73a1.33,1.33,0,0,1-1.33,1.32H236.7a1.33,1.33,0,0,0-1.32,1.33V38.41c0,2.31,1.11,3.66,3.57,3.66a6.55,6.55,0,0,0,2.41-.52,1.31,1.31,0,0,1,1.71.73l1.73,4.24a1.31,1.31,0,0,1-.54,1.64,15.88,15.88,0,0,1-7.61,2.08c-7.7,0-10.79-4.84-10.79-11.51V24.82a1.34,1.34,0,0,0-1.33-1.33h-3.14a1.32,1.32,0,0,1-1.33-1.32V17.44a1.32,1.32,0,0,1,1.33-1.33h3.14a1.33,1.33,0,0,0,1.33-1.32" transform="translate(0 0)" fill="#2c2e35"/></g><g clip-path="url(#a)"><path d="M310,28.89h10a1.32,1.32,0,0,0,1.3-1.63,5.94,5.94,0,0,0-6.23-4.8,6.37,6.37,0,0,0-6.38,4.7A1.33,1.33,0,0,0,310,28.89m18.73,16.5a1.31,1.31,0,0,1-.38,1.68c-1.61,1.17-5.44,3.33-11.65,3.33-11.19,0-17.86-7.54-17.86-17.62s6.67-17.46,16.51-17.46,15.56,6.59,15.56,16.59c0,.38,0,.88,0,1.34,0,.71-.75,1.88-1.47,1.88l-19.81,0a1.35,1.35,0,0,0-1.44,1.45c.41,4.41,4.39,6.32,9.17,6.32a14.7,14.7,0,0,0,7.43-2,1.31,1.31,0,0,1,1.83.53Z" transform="translate(0 0)" fill="#2c2e35"/></g><g clip-path="url(#a)"><path d="M343.52,49.45h-6.88a1.32,1.32,0,0,1-1.32-1.33V17.43a1.32,1.32,0,0,1,1.32-1.32l4.61,0a1.47,1.47,0,0,1,1.37,1.43V20.8h0c2.54-3.74,6-5.55,11.34-5.55,8.57,0,13.89,5.87,13.89,14.84v18a1.33,1.33,0,0,1-1.33,1.33h-6.88a1.32,1.32,0,0,1-1.32-1.33V30.87c0-4-2.46-7.3-6.74-7.3a6.65,6.65,0,0,0-6.75,6.83V48.12a1.32,1.32,0,0,1-1.32,1.33" transform="translate(0 0)" fill="#2c2e35"/></g><g clip-path="url(#a)"><path d="M376.35,14.79V7.28A1.32,1.32,0,0,1,377.67,6h6.88a1.32,1.32,0,0,1,1.32,1.33v7.51a1.32,1.32,0,0,0,1.32,1.32h5.53a1.33,1.33,0,0,1,1.33,1.33v4.73a1.33,1.33,0,0,1-1.33,1.32h-5.53a1.33,1.33,0,0,0-1.32,1.33V38.41c0,2.31,1.11,3.66,3.57,3.66a6.55,6.55,0,0,0,2.41-.52,1.31,1.31,0,0,1,1.71.73l1.73,4.24a1.31,1.31,0,0,1-.54,1.64,15.88,15.88,0,0,1-7.61,2.08c-7.7,0-10.79-4.84-10.79-11.51V24.82A1.33,1.33,0,0,0,375,23.49h-3.15a1.33,1.33,0,0,1-1.33-1.32V17.44a1.33,1.33,0,0,1,1.33-1.33H375a1.32,1.32,0,0,0,1.32-1.32" transform="translate(0 0)" fill="#2c2e35"/></g><g clip-path="url(#a)"><path d="M282.79,28.47l-9.06,9.44a3,3,0,0,1-2.12.93h-.17a2.64,2.64,0,0,1-1.87-.82l-9.09-9.41a1.14,1.14,0,0,0-1.93.94V48.08a1.21,1.21,0,0,1-1.15,1.27h-4.5a1.22,1.22,0,0,1-1.15-1.27V17.76a1.22,1.22,0,0,1,1.15-1.27h3.62a1.08,1.08,0,0,1,.78.34L270.81,31a1.06,1.06,0,0,0,1.57,0L286,16.83a1.12,1.12,0,0,1,.79-.34h3.48a1.22,1.22,0,0,1,1.15,1.27l.06,30.31a1.21,1.21,0,0,1-1.14,1.28h-4.44a1.21,1.21,0,0,1-1.14-1.27V29.4a1.14,1.14,0,0,0-1.93-.93" transform="translate(0 0)" fill="#43b979"/></g><g clip-path="url(#a)"><path d="M282.79,28.47l-9.06,9.44a3,3,0,0,1-2.12.93h-.17a2.64,2.64,0,0,1-1.87-.82l-9.09-9.41a1.14,1.14,0,0,0-1.93.94V48.08a1.21,1.21,0,0,1-1.15,1.27h-4.5a1.22,1.22,0,0,1-1.15-1.27V17.76a1.22,1.22,0,0,1,1.15-1.27h3.62a1.08,1.08,0,0,1,.78.34L270.81,31a1.06,1.06,0,0,0,1.57,0L286,16.83a1.12,1.12,0,0,1,.79-.34h3.48a1.22,1.22,0,0,1,1.15,1.27l.06,30.31a1.21,1.21,0,0,1-1.14,1.28h-4.44a1.21,1.21,0,0,1-1.14-1.27V29.4A1.14,1.14,0,0,0,282.79,28.47Z" transform="translate(0 0)" fill="none" stroke="#43b979" stroke-miterlimit="1" stroke-width="2"/></g><g clip-path="url(#a)"><path d="M432.38,12.35a26.6,26.6,0,0,0-1.79,5.31,70.2,70.2,0,0,0-1.4,7.53,17.43,17.43,0,0,0,4.51-5.85,14.06,14.06,0,0,0,1.51-5.89c0-2-.38-3-1.12-3-.52,0-1.09.64-1.71,1.91m11.68,27a3.12,3.12,0,0,1,.39,1.68,4.75,4.75,0,0,1-1,3.17,22.15,22.15,0,0,1-4.8,4.44,10.58,10.58,0,0,1-6,1.73q-10.41,0-10.42-14.65c0-1.49.06-3,.16-4.54h-2a2.9,2.9,0,0,1-2.07-.56,2.5,2.5,0,0,1-.54-1.79c0-1.9.77-2.85,2.3-2.85h2.91a49.88,49.88,0,0,1,2.65-10.27A23.31,23.31,0,0,1,430,8.29a7.35,7.35,0,0,1,5.43-2.75,3.81,3.81,0,0,1,3.37,1.89,8.52,8.52,0,0,1,1.23,4.74q0,7.92-6.64,13.79h5.72a1.61,1.61,0,0,1,1.17.35,1.87,1.87,0,0,1,.36,1.33q0,3.52-5.77,3.52h-6.22c-.07,1.7-.11,3-.11,4,0,3.54.42,6,1.25,7.45a4.27,4.27,0,0,0,4,2.15,6.07,6.07,0,0,0,3.88-1.33,30.71,30.71,0,0,0,4-4,1.78,1.78,0,0,1,1.38-.71,1.16,1.16,0,0,1,1,.61" transform="translate(0 0)" fill="#2c2e35"/></g><g clip-path="url(#a)"><path d="M451.44,9.8a44.73,44.73,0,0,0-2.17,7.09,93.48,93.48,0,0,0-1.71,9.73,36.66,36.66,0,0,0,5.23-8.12,18.91,18.91,0,0,0,2.07-8A6.78,6.78,0,0,0,454.5,8q-.36-.87-1-.87c-.61,0-1.29.88-2,2.63m18.25,29.53a3.22,3.22,0,0,1,.38,1.68,4.69,4.69,0,0,1-1,3.17,27.67,27.67,0,0,1-4.82,4.44,9.66,9.66,0,0,1-5.65,1.73,5,5,0,0,1-3.92-1.5,6.4,6.4,0,0,1-1.33-4.37,32.48,32.48,0,0,1,.71-5.1,25.86,25.86,0,0,0,.67-4.44c0-.55-.19-.82-.57-.82s-1.07.57-1.88,1.71a24.56,24.56,0,0,0-2.45,4.52,36.1,36.1,0,0,0-2,5.92q-1,4.08-4.8,4.08a2,2,0,0,1-2-1.1,11,11,0,0,1-.48-4c0-1.09,0-2,.05-2.6l.05-4.09a87.66,87.66,0,0,1,1.61-16.38A49.29,49.29,0,0,1,447,7.91q3.15-5.79,7.53-5.79a4.47,4.47,0,0,1,3.8,2,8.76,8.76,0,0,1,1.46,5.24,22.34,22.34,0,0,1-3,10.69A69.44,69.44,0,0,1,447,33c-.1,1.77-.16,3.59-.16,5.46a29.52,29.52,0,0,1,3.76-7.07,14.39,14.39,0,0,1,4.08-3.9,7.41,7.41,0,0,1,3.7-1.18q3.31,0,3.32,3.32a41.76,41.76,0,0,1-1.12,7.2,34.93,34.93,0,0,0-1,5.87q0,2,1.47,2a4,4,0,0,0,2.43-1.25,40.81,40.81,0,0,0,3.75-4.06,1.78,1.78,0,0,1,1.38-.71,1.19,1.19,0,0,1,1.05.61" transform="translate(0 0)" fill="#2c2e35"/></g><g clip-path="url(#a)"><path d="M469.41,22a3.6,3.6,0,0,1-1.08-2.78,3.76,3.76,0,0,1,1.41-3,5.17,5.17,0,0,1,3.49-1.2,4.88,4.88,0,0,1,3.07.92,3.11,3.11,0,0,1,1.17,2.6,4.14,4.14,0,0,1-1.33,3.24,5,5,0,0,1-3.52,1.2,4.57,4.57,0,0,1-3.21-1m-2,26.06a11.47,11.47,0,0,1-1.51-6.23,38.42,38.42,0,0,1,.59-5.9A53.53,53.53,0,0,1,468,29.17a4.3,4.3,0,0,1,1.22-2.25,4,4,0,0,1,2.45-.61c1.74,0,2.6.58,2.6,1.74a40.48,40.48,0,0,1-1,5.92,44,44,0,0,0-1.23,7.6,5.41,5.41,0,0,0,.41,2.35,1.41,1.41,0,0,0,1.38.82,3.85,3.85,0,0,0,2.29-1.28,44.64,44.64,0,0,0,3.68-4,1.78,1.78,0,0,1,1.38-.71,1.16,1.16,0,0,1,1,.61,3.12,3.12,0,0,1,.39,1.68,4.75,4.75,0,0,1-1,3.17q-5.06,6.16-9.45,6.17A5.3,5.3,0,0,1,467.39,48" transform="translate(0 0)" fill="#2c2e35"/></g><g clip-path="url(#a)"><path d="M479.38,48.31a19.76,19.76,0,0,1-.79-6.53,41.52,41.52,0,0,1,1.89-12.61A3.84,3.84,0,0,1,482,27a5.27,5.27,0,0,1,2.93-.69,2.87,2.87,0,0,1,1.43.26,1.06,1.06,0,0,1,.41,1,19.61,19.61,0,0,1-.77,3.67q-.51,2-.81,3.57a33.88,33.88,0,0,0-.51,3.78,29,29,0,0,1,3.77-7.14,14.86,14.86,0,0,1,4.11-3.93,7.44,7.44,0,0,1,3.7-1.18q3.31,0,3.32,3.32a40.76,40.76,0,0,1-1.12,7.2,34.93,34.93,0,0,0-1,5.87c0,1.36.49,2,1.48,2a4,4,0,0,0,2.42-1.25,40.81,40.81,0,0,0,3.75-4.06,1.79,1.79,0,0,1,1.38-.72,1.2,1.2,0,0,1,1.05.62,3.22,3.22,0,0,1,.38,1.68,4.69,4.69,0,0,1-1,3.17,22.54,22.54,0,0,1-4.72,4.44,9.94,9.94,0,0,1-5.74,1.73,5,5,0,0,1-3.93-1.5,6.4,6.4,0,0,1-1.33-4.37,31.65,31.65,0,0,1,.72-5.1,26.73,26.73,0,0,0,.66-4.44c0-.55-.19-.82-.56-.82s-1.07.57-1.87,1.71a28,28,0,0,0-2.45,4.52,35.23,35.23,0,0,0-2,5.92,8.07,8.07,0,0,1-1.3,3.24,3,3,0,0,1-2.33.84,2.79,2.79,0,0,1-2.73-2" transform="translate(0 0)" fill="#2c2e35"/></g><g clip-path="url(#a)"><path d="M514.17,43.77a9.62,9.62,0,0,0,1.53-4.09L517.33,31a6,6,0,0,0-3.88,1.6,11,11,0,0,0-2.85,4.11,13.79,13.79,0,0,0-1.08,5.41,3.58,3.58,0,0,0,.64,2.35,2.18,2.18,0,0,0,1.76.77,3,3,0,0,0,2.25-1.43m-3.6,21.54a42.14,42.14,0,0,0,3.09-9.75A29.72,29.72,0,0,0,508,61.63a9.15,9.15,0,0,0-1.73,4.75,2.8,2.8,0,0,0,.33,1.43,1.18,1.18,0,0,0,1.1.56c.84,0,1.81-1,2.88-3.06m12.35-36.93a1.74,1.74,0,0,1,.54,1.51,7.81,7.81,0,0,1-.05,1q-.21,1.59-1.28,8.17-.76,4.44-1,5.87-1.93,13.17-5.23,20.8t-8.81,7.63a5.75,5.75,0,0,1-4.23-1.61,5.63,5.63,0,0,1-1.64-4.21,14,14,0,0,1,2.86-7.78q2.86-4.15,10.72-10.24l.31-2a6.15,6.15,0,0,1-5.06,2.86A6.2,6.2,0,0,1,505,48.06a9.2,9.2,0,0,1-1.89-6A16.57,16.57,0,0,1,505,34.3a16.18,16.18,0,0,1,5-5.87,11.33,11.33,0,0,1,6.66-2.22,2,2,0,0,1,1.51.43,3.76,3.76,0,0,1,.63,1.56,11.54,11.54,0,0,1,2.25-.2,3.19,3.19,0,0,1,1.81.38" transform="translate(0 0)" fill="#2c2e35"/></g><g clip-path="url(#a)"><path d="M153.73,32.75c0-6.17-3.54-10.29-8.31-10.29-4.94,0-8.4,4.12-8.4,10.29,0,6.34,3.46,10.3,8.4,10.3,4.77,0,8.31-4,8.31-10.3m-8.31,18.12c-10,0-18.11-7-18.11-17.95s8.15-18.28,18.11-18.28,18,7.25,18,18.28-8.15,17.95-18,17.95" transform="translate(0 0)" fill="#4fbcca"/></g><g clip-path="url(#a)"><path d="M157.32,32.5a11.81,11.81,0,1,1-11.8-11.81,11.8,11.8,0,0,1,11.8,11.81" transform="translate(0 0)" fill="#4fbcca"/></g></svg>